PathFileType	4	(X/Y/Z)	c:/Users/goper/Files/vsCode/490R/osim_files/A04/A04_SSWS_05.trc
DataRate	CameraRate	NumFrames	NumMarkers	Units                	OrigDataRate	OrigDataStartFrame	OrigNumFrames
120.00	120.00	7	36	mm	120.0	758	1212
                Frame#	Time	LPSIS			LASIS			LTH1			LTH2			LTH3			LTH4			LLFE			LMFE			LSH1			LSH2			LSH3			LSH4			LLMAL			LMMAL			LCAL			LMTP5			LTOE			LMTP1			RPSIS			RASIS			RTH1			RTH2			RTH3			RTH4			RLFE			RMFE			RSH1			RSH2			RSH3			RSH4			RLMAL			RMMAL			RCAL			RMTP1			RTOE			RMTP5		
		X1	Y1	Z1	X2	Y2	Z2	X3	Y3	Z3	X4	Y4	Z4	X5	Y5	Z5	X6	Y6	Z6	X7	Y7	Z7	X8	Y8	Z8	X9	Y9	Z9	X10	Y10	Z10	X11	Y11	Z11	X12	Y12	Z12	X13	Y13	Z13	X14	Y14	Z14	X15	Y15	Z15	X16	Y16	Z16	X17	Y17	Z17	X18	Y18	Z18	X19	Y19	Z19	X20	Y20	Z20	X21	Y21	Z21	X22	Y22	Z22	X23	Y23	Z23	X24	Y24	Z24	X25	Y25	Z25	X26	Y26	Z26	X27	Y27	Z27	X28	Y28	Z28	X29	Y29	Z29	X30	Y30	Z30	X31	Y31	Z31	X32	Y32	Z32	X33	Y33	Z33	X34	Y34	Z34	X35	Y35	Z35	X36	Y36	Z36

758	6.30833	-1630.36731	1054.51123	271.83340	-1852.96887	1014.60693	355.71945	-1833.54932	666.02930	415.33167	-1842.53369	622.69330	420.05753	-1893.60022	674.45959	417.41171	-1895.71362	630.27661	422.41809	-1876.03113	511.55350	414.26266	-1899.60193	498.78424	276.58646	-1775.74207	473.77625	407.17130	-1746.86938	441.85696	402.61191	-1816.83191	427.87784	399.15543	-1779.81458	404.02029	395.33160	-1518.18945	282.62091	340.46988	-1543.27441	261.57150	258.57126	-1457.46790	310.13474	275.55396	-1545.04297	136.95319	383.96625	-1589.16748	101.85147	329.70984	-1574.01672	107.18483	282.32120	-1628.78882	1045.42542	165.42352	-1853.16296	1024.70105	69.53307	-1796.40698	714.52087	37.24728	-1810.46240	674.39978	37.30577	-1856.15356	729.26703	26.84681	-1862.97534	682.08862	31.16246	-1886.39319	549.80304	60.34033	-1901.32593	548.90491	172.95425	-1826.72278	338.69235	69.09277	-1829.29541	291.60828	78.32572	-1887.60815	334.69562	64.06371	-1880.56641	287.78757	70.12550	-1844.15845	97.26351	78.40379	-1873.37756	110.13267	211.83986	-1777.68579	56.65810	159.15417	-2002.21277	60.75901	191.83745	-2023.87622	81.30871	144.19643	-1990.68848	52.19360	72.76046
759	6.31667	-1638.80859	1056.95630	270.59824	-1861.27905	1017.52576	355.24832	-1849.47070	670.33472	414.56458	-1859.29822	627.13477	419.46704	-1909.64990	680.02759	416.74805	-1912.04468	635.98169	422.02841	-1894.82874	516.26117	413.84766	-1918.27466	503.76459	276.18677	-1795.14502	477.15274	407.00214	-1766.60229	444.93851	402.48218	-1836.80945	431.77917	398.96378	-1799.96558	407.58957	395.16818	-1540.53149	282.76062	340.71100	-1565.32886	261.80756	258.80737	-1479.16907	309.78714	276.20154	-1568.65503	137.23260	384.15540	-1612.86829	102.48996	329.66492	-1597.56934	107.91103	282.51871	-1637.45557	1047.57556	164.20767	-1862.00623	1026.07910	69.11638	-1801.29028	715.58057	37.16435	-1814.83911	675.34509	37.33104	-1861.13879	729.61633	26.68460	-1867.39575	682.37708	31.18913	-1889.16724	549.94843	60.53028	-1903.45276	549.13098	173.19145	-1827.89551	339.23123	69.35057	-1830.32385	292.01932	78.58282	-1888.75830	334.81787	64.42980	-1881.54529	288.03027	70.44459	-1844.44385	97.63842	78.58752	-1873.40698	109.85435	212.07036	-1777.75684	57.05027	159.21407	-2002.31970	60.56995	191.88335	-2024.00940	81.16505	144.21310	-1990.77563	52.17182	72.83356
760	6.32500	-1647.27136	1059.32214	269.41211	-1869.57971	1020.40558	354.67184	-1865.25916	674.16058	413.91330	-1875.87170	631.22034	418.73306	-1925.13000	684.69348	416.20380	-1928.57434	640.86853	421.32111	-1913.40710	520.78119	413.28592	-1936.68042	508.74506	275.60538	-1814.72375	480.39163	407.05099	-1786.30701	447.48981	402.30383	-1856.76111	435.46008	398.51260	-1820.78833	411.44202	394.83694	-1562.71899	281.90387	341.28729	-1587.68274	261.44910	259.31708	-1500.96069	308.37317	276.93497	-1592.73901	136.60077	384.36896	-1637.25720	102.50304	329.65753	-1621.81042	107.83875	282.64832	-1645.93103	1049.73328	163.14264	-1870.65527	1027.37305	68.72821	-1805.88599	716.65515	37.20657	-1818.93433	676.26697	37.46440	-1865.49475	729.93842	26.34870	-1871.70923	682.68866	31.21954	-1891.72388	550.08331	60.71959	-1905.72339	549.28717	173.55193	-1828.99744	339.59756	69.64944	-1831.17871	292.43875	78.77338	-1889.84351	334.99625	64.69652	-1882.51965	288.21051	70.78941	-1844.58850	97.97937	78.65255	-1873.62000	109.97640	212.12808	-1777.83679	57.35495	159.22415	-2002.44165	60.41770	191.92601	-2024.12659	81.03143	144.28136	-1990.80664	52.15454	72.89666
761	6.33333	-1655.71094	1061.65503	268.39560	-1877.96802	1023.12762	354.19025	-1880.96863	677.74304	413.36023	-1892.23535	634.82092	417.92111	-1940.50488	689.31512	415.75854	-1944.35986	645.67963	420.57776	-1932.06067	525.31006	412.71466	-1954.78333	513.85199	274.93607	-1833.87927	483.15936	406.82028	-1806.17627	449.72980	402.12860	-1876.60278	438.94662	398.07361	-1841.00293	414.46628	394.54291	-1584.91956	280.16644	342.02371	-1610.29187	260.51501	260.00482	-1522.78308	305.85699	277.70273	-1617.42517	135.29524	384.52090	-1662.48291	102.05658	329.79810	-1647.00574	107.46817	282.73141	-1654.61182	1051.67126	162.19633	-1879.19690	1028.55078	68.21864	-1810.33069	717.78790	37.18329	-1822.94373	677.14111	37.60219	-1870.46289	730.18744	26.46681	-1875.70776	682.91290	31.27371	-1894.14893	550.21460	60.96879	-1907.70532	549.51801	174.09091	-1829.92297	339.95154	69.94841	-1831.87439	292.90179	79.10427	-1890.81567	335.15509	65.03009	-1883.27869	288.36572	71.02797	-1844.83093	98.58636	78.66658	-1874.32275	109.96003	212.00021	-1778.30078	57.33145	159.34969	-2002.41614	59.93859	192.27303	-2024.22766	80.88628	144.38721	-1991.02478	52.17875	72.90947
762	6.34167	-1664.24268	1063.77283	267.42905	-1886.40210	1025.61902	353.65710	-1896.23975	681.37207	412.80057	-1908.15479	638.66254	417.09573	-1955.79102	694.10388	415.17526	-1960.30139	650.34705	419.74548	-1950.09973	529.85815	411.93146	-1972.41711	519.07916	274.05197	-1852.71582	485.76364	406.38382	-1825.75659	451.76709	401.87283	-1896.37231	442.35492	397.44675	-1861.24683	417.39807	393.97784	-1607.40393	277.66599	342.54947	-1633.29248	258.62848	260.73016	-1544.52710	302.18848	278.44995	-1643.19116	133.47697	384.67197	-1688.61560	101.22536	329.87372	-1673.19458	106.54884	282.75821	-1663.18604	1053.59143	161.39249	-1887.71472	1029.59473	67.66766	-1814.72717	718.85919	37.28057	-1826.77197	678.05573	37.84844	-1875.04504	730.48138	26.41201	-1879.69470	683.15924	31.34668	-1896.39697	550.31592	61.22520	-1909.51196	549.51758	174.66454	-1830.83521	340.23483	70.25696	-1832.76685	293.04468	79.30695	-1891.49719	335.34067	65.29819	-1883.96021	288.58655	71.28820	-1845.05493	98.81905	78.84570	-1874.16211	110.10560	212.35669	-1777.88342	58.16442	159.14128	-2002.47803	59.71783	192.39432	-2024.33130	80.69380	144.48767	-1991.05774	52.15792	72.95879
763	6.35000	-1672.80786	1065.74670	266.63593	-1894.73096	1027.82458	353.17270	-1910.75720	683.90906	413.32031	-1923.64856	642.55109	416.45078	-1970.04663	698.69940	414.31348	-1975.78845	655.25189	418.59586	-1967.87695	534.42267	411.05823	-1989.47668	524.47137	273.08014	-1871.26270	488.23248	405.87561	-1845.10657	453.61603	401.54340	-1916.00598	445.86169	396.93521	-1882.91455	418.27539	392.24588	-1630.75000	274.23651	342.76761	-1656.07532	256.31711	260.62170	-1566.57837	297.41635	279.03677	-1670.11255	131.33368	384.70261	-1715.89050	100.12226	329.70068	-1699.82825	104.92741	282.60336	-1671.77600	1055.39917	160.56223	-1896.13489	1030.56555	67.01004	-1819.00415	719.99103	37.41088	-1830.46497	679.04401	38.08501	-1879.27185	730.71295	26.45948	-1883.32507	683.31030	31.51954	-1898.32825	550.40527	61.47273	-1911.23828	549.46686	175.23720	-1831.65051	340.53757	70.63349	-1833.39258	293.33206	79.59239	-1892.32104	335.53622	65.65666	-1884.64258	288.75833	71.57777	-1845.05176	98.80958	79.03031	-1874.38550	110.14262	212.46437	-1777.96277	58.35752	159.22090	-2002.57385	59.59244	192.51587	-2024.40833	80.49039	144.61307	-1991.09351	52.16621	73.00719
764	6.35833	-1681.34338	1067.61682	265.96695	-1901.82080	1029.40930	352.30963	-1925.05725	688.03497	412.47610	-1938.70288	646.60699	415.69833	-1984.47839	703.92261	413.39423	-1990.59021	660.12195	417.82095	-1985.35901	538.91388	409.93997	-2006.24512	529.92084	272.07068	-1889.81238	490.59515	405.45120	-1864.31848	455.24969	401.05225	-1935.40198	449.31577	396.12326	-1903.17737	420.93533	391.60681	-1654.40417	270.69391	342.93665	-1679.42297	253.36899	260.50076	-1589.37109	291.98288	279.73929	-1697.81311	128.72366	384.66910	-1744.09692	97.96024	327.21548	-1727.35181	102.86002	282.41953	-1680.34631	1057.06238	159.96414	-1904.59155	1031.44568	66.42823	-1823.25562	721.12103	37.60489	-1833.93970	680.00024	38.40213	-1883.57275	730.95880	26.30422	-1886.97607	683.55042	31.64819	-1900.34888	550.46948	61.74659	-1913.07996	549.32819	175.68097	-1832.33838	340.83777	70.97784	-1833.90283	293.71890	79.97282	-1893.03467	335.72516	65.97170	-1885.21777	288.92575	71.81154	-1845.26819	99.34141	79.09743	-1874.59680	110.18980	212.58502	-1778.03369	58.57510	159.28795	-2002.67676	59.45606	192.58691	-2024.52722	80.37347	144.73132	-1991.11853	52.16267	73.03755
